<svg width="19" height="20" viewBox="0 0 19 20" fill="none" xmlns="http://www.w3.org/2000/svg">
<path d="M18.6719 7.41243C18.6142 7.24262 18.5081 7.09341 18.3666 6.98322C18.2251 6.87303 18.0545 6.80669 17.8757 6.79238L12.6466 6.37688L10.3838 1.36786C10.3117 1.20653 10.1945 1.0695 10.0463 0.97332C9.89804 0.877135 9.72515 0.825903 9.54846 0.825806C9.37176 0.825709 9.19882 0.876751 9.05049 0.972773C8.90217 1.0688 8.7848 1.20569 8.71256 1.36694L6.44974 6.37688L1.22059 6.79238C1.0449 6.8063 0.876937 6.87054 0.7368 6.97742C0.596662 7.08429 0.490282 7.22928 0.430387 7.39503C0.370491 7.56079 0.359617 7.74028 0.399065 7.91205C0.438512 8.08383 0.526612 8.24059 0.652822 8.36361L4.51713 12.1307L3.15045 18.0487C3.10895 18.2278 3.12225 18.4153 3.18863 18.5868C3.255 18.7583 3.37138 18.9058 3.52267 19.0103C3.67395 19.1149 3.85316 19.1715 4.03703 19.1729C4.22091 19.1743 4.40096 19.1204 4.55382 19.0182L9.54816 15.6886L14.5425 19.0182C14.6987 19.1219 14.883 19.1753 15.0705 19.1712C15.258 19.1671 15.4397 19.1057 15.5913 18.9952C15.7428 18.8847 15.8569 18.7305 15.9181 18.5532C15.9794 18.376 15.9849 18.1842 15.9339 18.0037L14.2563 12.1334L18.4169 8.38929C18.6893 8.14347 18.7893 7.76007 18.6719 7.41243Z" fill="#F3CD03"/>
</svg>
