<svg width="19" height="20" viewBox="0 0 19 20" fill="none" xmlns="http://www.w3.org/2000/svg">
<path d="M4.53233 12.1308L3.16565 18.0488C3.12333 18.228 3.13603 18.4158 3.20211 18.5877C3.26818 18.7596 3.38454 18.9075 3.536 19.0122C3.68746 19.1169 3.86698 19.1735 4.0511 19.1746C4.23523 19.1757 4.41541 19.1212 4.5681 19.0183L9.56244 15.6888L14.5568 19.0183C14.713 19.1221 14.8973 19.1755 15.0848 19.1714C15.2723 19.1673 15.454 19.1058 15.6055 18.9953C15.7571 18.8849 15.8712 18.7306 15.9324 18.5534C15.9937 18.3761 15.9992 18.1844 15.9482 18.0039L14.2706 12.1336L18.4312 8.38944C18.5644 8.26946 18.6596 8.11304 18.7049 7.93955C18.7502 7.76605 18.7437 7.58308 18.6861 7.41327C18.6285 7.24345 18.5224 7.09424 18.3809 6.98408C18.2394 6.87392 18.0688 6.80764 17.89 6.79345L12.6609 6.37703L10.398 1.36801C10.3259 1.20672 10.2086 1.06976 10.0603 0.973657C9.91205 0.877554 9.73914 0.826416 9.56244 0.826416C9.38575 0.826416 9.21283 0.877554 9.06456 0.973657C8.91628 1.06976 8.79899 1.20672 8.72684 1.36801L6.46402 6.37703L1.23487 6.79254C1.05918 6.80645 0.89122 6.87069 0.751082 6.97757C0.610944 7.08445 0.504564 7.22943 0.444669 7.39518C0.384774 7.56094 0.373899 7.74044 0.413347 7.91221C0.452795 8.08398 0.540894 8.24074 0.667105 8.36376L4.53233 12.1308ZM7.1492 8.16288C7.31292 8.14998 7.47016 8.09328 7.60442 7.99871C7.73869 7.90414 7.84505 7.77519 7.91234 7.62538L9.56244 3.97387L11.2125 7.62538C11.2798 7.77519 11.3862 7.90414 11.5205 7.99871C11.6547 8.09328 11.812 8.14998 11.9757 8.16288L15.6189 8.45181L12.6187 11.1521C12.3582 11.387 12.2545 11.7484 12.3499 12.0859L13.4992 16.108L10.0724 13.8231C9.92201 13.7222 9.74496 13.6683 9.56382 13.6683C9.38267 13.6683 9.20562 13.7222 9.05521 13.8231L5.47433 16.2107L6.43742 12.0409C6.47274 11.8876 6.468 11.7277 6.42366 11.5767C6.37933 11.4257 6.29689 11.2887 6.18427 11.1787L3.39771 8.4619L7.1492 8.16288Z" fill="#F3CD03"/>
</svg>
